<?xml version="1.0" encoding="UTF-8" standalone="no"?>
<!DOCTYPE svg PUBLIC "-//W3C//DTD SVG 1.1//EN" "http://www.w3.org/Graphics/SVG/1.1/DTD/svg11.dtd">
<svg width="100%" height="100%" viewBox="0 0 1639 1538" version="1.1" xmlns="http://www.w3.org/2000/svg" xmlns:xlink="http://www.w3.org/1999/xlink" xml:space="preserve" xmlns:serif="http://www.serif.com/" style="fill-rule:evenodd;clip-rule:evenodd;stroke-linejoin:round;stroke-miterlimit:2;">
    <g transform="matrix(3.20977,0,0,3.09453,179.064,163.031)">
        <g>
            <path d="M396.05,156.87C395.7,145.56 393.17,133.87 386.05,125.07C377.15,114.07 362.83,109.45 350.5,102.53C330.521,91.208 315.125,73.238 307,51.76C304.66,45.49 302.89,38.85 299,33.43C288.28,18.67 265.9,18.57 248.84,25.05C231.78,31.53 216.61,42.95 198.84,46.93C178.38,51.5 157.2,45.69 136.27,44.62C115.34,43.55 91,49.55 82,68.52C76.32,80.52 78.28,95.05 72.87,107.2C60.67,134.66 18.18,137.57 6,165C-3.15,185.58 9.75,209.42 25.75,225.27C41.75,241.12 61.75,254.02 71.84,274.12C82.84,295.95 82.69,326.18 104.02,338.12C125.35,350.06 154.62,334.44 175.82,346.71C183.07,350.91 188.3,357.87 195.09,362.78C218.99,380.06 253.57,366.58 274.56,345.86C300.98,319.77 329.13,289.23 352.22,260.36C375.7,231 397.27,195.84 396.05,156.87Z" style="fill:rgb(64,114,175);fill-opacity:0.18;fill-rule:nonzero;"/>
        </g>
    </g>
</svg>
